# xmcd
#
# Track frame offsets: 
#        150
#        11929
#        24486
#        34074
#        46658
#        57438
#        67912
#        78835
#        90859
#        102258
#        116812
#        128730
#        139715
#
# Disc length: 1985 seconds
#
# Revision: 0
# Processed by: cddbd v1.5.1PL2 Copyright (c) Steve Scherf et al.
# Submitted via: ExactAudioCopy v0.95a5
#
DISCID=9e07bf0d
DTITLE=Crosscut - Bluegrass Gospel
DYEAR=1900
DGENRE=Bluegrass
TTITLE0=Sarah Laughed
TTITLE1=Give Me The Roses
TTITLE2=Gospel Train 45
TTITLE3=Voice Of My Savior
TTITLE4=Shield Of Faith
TTITLE5=Touch Of GOD'S Hand
TTITLE6=Be Assured
TTITLE7=Matthew 24
TTITLE8=Let Me Tell You About Jesus
TTITLE9=Land Of The Living
TTITLE10=Canaan Land
TTITLE11=Take Your Shoes Off Moses
TTITLE12=Glory Land
EXTD=
EXTT0=
EXTT1=
EXTT2=
EXTT3=
EXTT4=
EXTT5=
EXTT6=
EXTT7=
EXTT8=
EXTT9=
EXTT10=
EXTT11=
EXTT12=
PLAYORDER=
